<svg xmlns="http://www.w3.org/2000/svg" width="13.335" height="13.334" viewBox="0 0 13.335 13.334">
  <path id="Path_5829" data-name="Path 5829" d="M504.117,7216.178l-1.583,1.587a.6.6,0,0,0-.184.454.685.685,0,0,0,.184.48.668.668,0,0,0,.951,0l2.05-2.055a.645.645,0,0,0,.2-.466.623.623,0,0,0-.2-.466l-2.067-2.067a.64.64,0,0,0-.467-.2.693.693,0,0,0-.659.681.616.616,0,0,0,.192.465Zm6.218,0a6.492,6.492,0,0,1-.525,2.6,6.754,6.754,0,0,1-1.424,2.12,6.646,6.646,0,0,1-2.118,1.414,6.6,6.6,0,0,1-5.2,0,6.856,6.856,0,0,1-2.116-1.414,6.689,6.689,0,0,1-1.425-2.12,6.7,6.7,0,0,1,0-5.2,6.654,6.654,0,0,1,3.542-3.547,6.767,6.767,0,0,1,5.2,0,6.653,6.653,0,0,1,3.542,3.547A6.5,6.5,0,0,1,510.335,7216.178Z" transform="translate(-497 -7209.511)" fill="#3578a2"/>
</svg>
