<svg xmlns="http://www.w3.org/2000/svg" xmlns:xlink="http://www.w3.org/1999/xlink" width="76" height="76" viewBox="0 0 76 76">
  <defs>
    <clipPath id="clip-path">
      <rect id="Rectangle_1863" data-name="Rectangle 1863" width="76" height="76" transform="translate(-0.437 -0.049)" fill="#fff"/>
    </clipPath>
  </defs>
  <g id="Group_3595" data-name="Group 3595" transform="translate(0.437 0.05)" clip-path="url(#clip-path)">
    <path id="Path_5868" data-name="Path 5868" d="M189.883,7027.771a3.248,3.248,0,0,0,1.448-.358l11.284-5.254a2.682,2.682,0,0,1,1.207-.241,2.839,2.839,0,0,1,1.267.241l11.164,5.254a2.926,2.926,0,0,0,3.56-.548,3.129,3.129,0,0,0,.663-2.533l-1.508-12.309a2.726,2.726,0,0,1,.181-1.213,2.855,2.855,0,0,1,.6-1.146l8.449-8.987a3.014,3.014,0,0,0,.844-3.014,2.912,2.912,0,0,0-2.474-1.935l-12.189-2.347a2.6,2.6,0,0,1-1.056-.52,3.863,3.863,0,0,1-.935-.867l-5.673-10.388a5.435,5.435,0,0,0-.845-1.2,2.792,2.792,0,0,0-2.051-.907,3.106,3.106,0,0,0-2.776,1.987L195.193,6992a2.25,2.25,0,0,1-.815.867,2.544,2.544,0,0,1-1.176.52l-12.129,2.347a2.6,2.6,0,0,0-2.414,1.935,2.859,2.859,0,0,0,.784,3.014l8.509,8.987a4.61,4.61,0,0,1,.543,1.146,2,2,0,0,1,.181,1.213l-1.57,12.309a3.306,3.306,0,0,0,.724,2.533A2.6,2.6,0,0,0,189.883,7027.771Z" transform="translate(-165.91 -6966.537)" fill="none" stroke="#ffb929" stroke-width="3.289"/>
  </g>
</svg>
