<svg xmlns="http://www.w3.org/2000/svg" width="34.004" height="33.536" viewBox="0 0 34.004 33.536">
  <path id="Path_5850" data-name="Path 5850" d="M987.678,7353.717v-12.974h4.408l.659-5.054h-5.067v-3.213c0-1.467.412-2.468,2.536-2.468h2.708V7325.5a39.045,39.045,0,0,0-3.949-.2c-3.9,0-6.578,2.347-6.578,6.667v3.72h-4.416v5.054H982.4v12.974H966.139a1.916,1.916,0,0,1-1.336-.546,1.851,1.851,0,0,1-.553-1.32v-29.8a1.83,1.83,0,0,1,.553-1.321,1.918,1.918,0,0,1,1.336-.546h30.225a1.918,1.918,0,0,1,1.336.546,1.83,1.83,0,0,1,.553,1.321v29.8a1.851,1.851,0,0,1-.553,1.32,1.917,1.917,0,0,1-1.336.546Z" transform="translate(-964.25 -7320.181)" fill="#3578a2"/>
</svg>
