<svg xmlns="http://www.w3.org/2000/svg" xmlns:xlink="http://www.w3.org/1999/xlink" width="34.67" height="34.195" viewBox="0 0 34.67 34.195">
  <defs>
    <clipPath id="clip-path">
      <rect id="Rectangle_1859" data-name="Rectangle 1859" width="34.67" height="34.195" fill="#fff"/>
    </clipPath>
  </defs>
  <g id="Group_3593" data-name="Group 3593" clip-path="url(#clip-path)">
    <path id="Path_5852" data-name="Path 5852" d="M1051.444,7328.48a5.8,5.8,0,0,0-4.081,1.667,5.65,5.65,0,0,0,0,8.067,5.828,5.828,0,0,0,8.161,0,5.65,5.65,0,0,0,0-8.067A5.8,5.8,0,0,0,1051.444,7328.48Z" transform="translate(-1034.109 -7317.079)" fill="#3578a2"/>
    <path id="Path_5853" data-name="Path 5853" d="M1047.4,7319.93a10.515,10.515,0,0,0-7.361,3,10.213,10.213,0,0,0-3.04,7.254v13.682a10.192,10.192,0,0,0,3.04,7.254,10.531,10.531,0,0,0,7.361,3.014h13.868a10.53,10.53,0,0,0,7.361-3.014,10.191,10.191,0,0,0,3.041-7.254v-13.682a10.212,10.212,0,0,0-3.041-7.254,10.514,10.514,0,0,0-7.361-3Zm-1.16,17.1a7.92,7.92,0,0,1,2.374-5.64,8.175,8.175,0,0,1,11.441,0,7.888,7.888,0,0,1,0,11.28,8.146,8.146,0,0,1-11.441,0A7.9,7.9,0,0,1,1046.241,7337.025Zm16.188-7.975h2.307v-2.28h-2.307Z" transform="translate(-1037 -7319.93)" fill="#3578a2" fill-rule="evenodd"/>
  </g>
</svg>
