<svg xmlns="http://www.w3.org/2000/svg" width="31.98" height="25.282" viewBox="0 0 31.98 25.282">
  <path id="Union_7" data-name="Union 7" d="M-1374.7-95.753a.418.418,0,0,0,.418-.419v-1.675a.417.417,0,0,0-.418-.419h-25.12v0a.418.418,0,0,0-.417.419h-2.512a2.931,2.931,0,0,1,2.546-2.905,2.951,2.951,0,0,1-.033-.443h2.512a.418.418,0,0,0,.419.418h20.1a.419.419,0,0,0,.418-.418v-13.4a.419.419,0,0,0-.418-.418h-20.1v-2.512h20.1a2.931,2.931,0,0,1,2.93,2.93v13.4a2.956,2.956,0,0,1-.033.444,2.931,2.931,0,0,1,2.544,2.905v1.675a2.931,2.931,0,0,1-2.93,2.93Zm-25.12,2.512v-2.512h25.12v2.512Zm-2.929-2.93h2.512a.419.419,0,0,0,.417.419v2.512A2.931,2.931,0,0,1-1402.746-96.171Zm0,0v-1.675h2.512v1.675Zm2.513-5.024v-13.4h2.512v13.4Zm14.821-11.3a1.257,1.257,0,0,1,1.256,1.257,1.256,1.256,0,0,1-1.256,1.255Zm-3.349,2.512a1.256,1.256,0,0,1-1.256-1.255,1.257,1.257,0,0,1,1.256-1.257h3.349v2.512Zm-11.472-4.605a2.931,2.931,0,0,1,2.93-2.93v2.512a.418.418,0,0,0-.419.418Z" transform="translate(1403.246 118.023)" fill="#e8a825" stroke="rgba(0,0,0,0)" stroke-width="1"/>
</svg>
