<svg xmlns="http://www.w3.org/2000/svg" width="26.818" height="17.311" viewBox="0 0 26.818 17.311">
  <path id="Union_6" data-name="Union 6" d="M-1385.07-103.306a.419.419,0,0,0,.465-.347v-11.426a.419.419,0,0,0-.465-.349h-15.117v-2.094h15.117v0a2.511,2.511,0,0,1,2.555,2.3l1.987-1.07.994,1.843-2.793,1.5a.354.354,0,0,0-.184.308v6.949a.348.348,0,0,0,.205.318l-.205.453.205-.453,2.791,1.265-.862,1.907-2.18-.988a2.538,2.538,0,0,1-2.513,1.972Zm-15.117,2.093v-2.093h15.117v2.093Zm-2.559-2.441h2.093a.419.419,0,0,0,.465.347v2.093A2.5,2.5,0,0,1-1402.746-103.653Zm23.375-.42a.349.349,0,0,0,.35-.349v-9.716a.353.353,0,0,0-.042-.165.346.346,0,0,0-.472-.14l-.994-1.843a2.44,2.44,0,0,1,3.308.991,2.444,2.444,0,0,1,.293,1.157v9.716a2.443,2.443,0,0,1-2.444,2.443Zm.308-10.23.921-.5Zm-1.314,12.108.862-1.907a.361.361,0,0,0,.144.03v2.093A2.45,2.45,0,0,1-1380.378-102.2Zm.432-.955.43-.952Zm-22.8-.5v-11.426h2.093v11.426Zm0-11.426a2.5,2.5,0,0,1,2.559-2.442v2.092a.419.419,0,0,0-.465.349Z" transform="translate(1403.246 118.023)" fill="#ff7f17" stroke="rgba(0,0,0,0)" stroke-width="1"/>
</svg>
