<svg xmlns="http://www.w3.org/2000/svg" width="20.549" height="20.688" viewBox="0 0 20.549 20.688">
  <path id="Union_1" data-name="Union 1" d="M-1051.708,2374.393a1,1,0,0,1,0-1.416l1.411,1.42a1,1,0,0,1-.705.291A.994.994,0,0,1-1051.708,2374.393Zm0-1.416,5.563-5.532a7.643,7.643,0,0,1-1.661-4.769h2a5.674,5.674,0,0,0,5.673,5.674,5.674,5.674,0,0,0,5.674-5.674,5.673,5.673,0,0,0-5.674-5.673,5.673,5.673,0,0,0-5.673,5.673h-2a7.674,7.674,0,0,1,7.675-7.675,7.675,7.675,0,0,1,7.676,7.675,7.675,7.675,0,0,1-7.676,7.676,7.641,7.641,0,0,1-4.576-1.513l-5.59,5.559Z" transform="translate(1052.5 -2354.5)" fill="#b9b9b9" stroke="rgba(0,0,0,0)" stroke-width="1"/>
</svg>
