<svg xmlns="http://www.w3.org/2000/svg" width="18.491" height="23.797" viewBox="0 0 18.491 23.797">
  <path id="Path_6605" data-name="Path 6605" d="M886.2,939.294a3.671,3.671,0,0,0-3.671-3.671v2a1.667,1.667,0,0,1,1.669,1.669Zm-3.671,3.671a3.67,3.67,0,0,0,3.671-3.671h-2a1.667,1.667,0,0,1-1.669,1.669Zm-3.671-3.671a3.671,3.671,0,0,0,3.671,3.671v-2a1.668,1.668,0,0,1-1.669-1.669Zm3.671-3.671a3.672,3.672,0,0,0-3.671,3.671h2a1.669,1.669,0,0,1,1.669-1.669Zm-7.274,4.041a7.433,7.433,0,0,1,7.409-7.781v-2a9.432,9.432,0,0,0-9.411,9.783Zm7.93,12.285a38.243,38.243,0,0,1-6.026-6.96,10.293,10.293,0,0,1-1.9-5.325h-2a12.227,12.227,0,0,0,2.216,6.4,40.032,40.032,0,0,0,6.342,7.345Zm6.556-12.285a10.294,10.294,0,0,1-1.9,5.325,38.241,38.241,0,0,1-6.026,6.96l1.375,1.455a40.093,40.093,0,0,0,6.343-7.345,12.235,12.235,0,0,0,2.215-6.4Zm-7.078-7.781c3.942,0,7.078,3.06,7.078,7.781h2c0-5.708-3.917-9.783-9.08-9.783Zm-.164,20.793-.689.728a1,1,0,0,0,1.375,0Z" transform="translate(-873.25 -929.88)" fill="#b9b9b9"/>
</svg>
