<svg xmlns="http://www.w3.org/2000/svg" xmlns:xlink="http://www.w3.org/1999/xlink" width="61.547" height="61.547" viewBox="0 0 61.547 61.547">
  <defs>
    <clipPath id="clip-path">
      <rect id="Rectangle_1884" data-name="Rectangle 1884" width="61.547" height="61.547" fill="#fff"/>
    </clipPath>
  </defs>
  <g id="Group_3608" data-name="Group 3608" clip-path="url(#clip-path)">
    <path id="Path_6109" data-name="Path 6109" d="M310.066,2697.717a2.714,2.714,0,0,0,1.172-.293l9.137-4.254a2.13,2.13,0,0,1,.977-.2,2.252,2.252,0,0,1,1.025.2l9.04,4.254a2.4,2.4,0,0,0,2.883-.44,2.558,2.558,0,0,0,.537-2.053l-1.221-9.975a2.16,2.16,0,0,1,.147-.974,2.287,2.287,0,0,1,.488-.933l6.841-7.28a2.437,2.437,0,0,0,.684-2.441,2.357,2.357,0,0,0-2-1.56l-9.87-1.907a2.271,2.271,0,0,1-.855-.413,3.462,3.462,0,0,1-.757-.707l-4.593-8.414a4.762,4.762,0,0,0-.684-.973,2.275,2.275,0,0,0-1.662-.733,2.5,2.5,0,0,0-2.248,1.613l-4.739,8.508a1.924,1.924,0,0,1-.66.707,2.19,2.19,0,0,1-.952.413l-9.821,1.907a2.109,2.109,0,0,0-1.955,1.56,2.308,2.308,0,0,0,.635,2.441l6.89,7.28a3.65,3.65,0,0,1,.44.933,1.586,1.586,0,0,1,.147.974l-1.271,9.975a2.7,2.7,0,0,0,.587,2.053A2.12,2.12,0,0,0,310.066,2697.717Z" transform="translate(-290.589 -2648.365)" fill="none" stroke="#000" stroke-width="2.885"/>
  </g>
</svg>
