<svg xmlns="http://www.w3.org/2000/svg" xmlns:xlink="http://www.w3.org/1999/xlink" width="34.67" height="34.195" viewBox="0 0 34.67 34.195">
  <defs>
    <clipPath id="clip-path">
      <rect id="Rectangle_1858" data-name="Rectangle 1858" width="34.67" height="34.195" fill="#fff"/>
    </clipPath>
  </defs>
  <g id="Group_3592" data-name="Group 3592" clip-path="url(#clip-path)">
    <path id="Path_5851" data-name="Path 5851" d="M1029.9,7330.665a10.226,10.226,0,0,1-2.734.759,4.542,4.542,0,0,0,2.094-2.613,9.111,9.111,0,0,1-3.027,1.134,4.78,4.78,0,0,0-6.8-.093,4.478,4.478,0,0,0-1.387,3.307,4.712,4.712,0,0,0,.107,1.067,13.514,13.514,0,0,1-5.454-1.453,13.188,13.188,0,0,1-4.334-3.441,4.507,4.507,0,0,0-.653,2.361,4.377,4.377,0,0,0,2.054,3.893,5.532,5.532,0,0,1-2.254-.586v.054a4.44,4.44,0,0,0,1.12,2.973,4.82,4.82,0,0,0,2.774,1.613,4.28,4.28,0,0,1-1.147.174,5.489,5.489,0,0,1-.88-.093,4.847,4.847,0,0,0,1.68,2.32,4.48,4.48,0,0,0,2.747.933,9.457,9.457,0,0,1-5.894,2,7.865,7.865,0,0,1-1.133-.066,13.4,13.4,0,0,0,7.268,2.093,13.839,13.839,0,0,0,4.747-.787,11.966,11.966,0,0,0,3.787-2.121,14.074,14.074,0,0,0,2.72-3.04,13.275,13.275,0,0,0,1.693-3.614,13.074,13.074,0,0,0,.56-3.747c0-.267-.013-.466-.027-.6A9.348,9.348,0,0,0,1029.9,7330.665Zm5.774-4.32v21.375a6.139,6.139,0,0,1-1.907,4.521,6.262,6.262,0,0,1-4.6,1.893h-21.656a6.262,6.262,0,0,1-4.6-1.893,6.139,6.139,0,0,1-1.907-4.521v-21.375a6.166,6.166,0,0,1,1.907-4.534,6.3,6.3,0,0,1,4.6-1.881h21.656a6.3,6.3,0,0,1,4.6,1.881A6.166,6.166,0,0,1,1035.67,7326.345Z" transform="translate(-1001 -7319.93)" fill="#3578a2"/>
  </g>
</svg>
