<svg xmlns="http://www.w3.org/2000/svg" width="25.422" height="20.101" viewBox="0 0 25.422 20.101">
  <path id="Union_5" data-name="Union 5" d="M-1380.767-100.515a.348.348,0,0,0,.349-.349v-14.215a.348.348,0,0,0-.349-.349H-1400.3v-2.093h19.536a2.442,2.442,0,0,1,2.442,2.441h0v14.217h0a2.442,2.442,0,0,1-2.442,2.443Zm-19.536,2.093v-2.093h19.536v2.093Zm-2.443-2.441h0v-14.217h2.093v14.215a.348.348,0,0,0,.349.349v2.093A2.442,2.442,0,0,1-1402.746-100.862Zm8.869-3.56a1.044,1.044,0,0,1-.495-.891h0v-5.581a1.045,1.045,0,0,1,.495-.891,1.046,1.046,0,0,1,1.019-.045l5.583,2.791-.469.936h0l.469-.936a1.044,1.044,0,0,1,.578.936,1.044,1.044,0,0,1-.578.935l-5.583,2.791a1.044,1.044,0,0,1-.469.111A1.043,1.043,0,0,1-1393.878-104.423Zm1.6-2.584,2.194-1.1-2.194-1.1Zm-10.467-8.073a2.442,2.442,0,0,1,2.443-2.443v2.093a.348.348,0,0,0-.349.349Z" transform="translate(1403.246 118.022)" fill="#006379" stroke="rgba(0,0,0,0)" stroke-width="1"/>
</svg>
